<?xml version="1.0" standalone="no"?>
<!DOCTYPE svg PUBLIC "-//W3C//DTD SVG 20010904//EN"
 "http://www.w3.org/TR/2001/REC-SVG-20010904/DTD/svg10.dtd">
<svg version="1.0" xmlns="http://www.w3.org/2000/svg"
 width="906.000000pt" height="906.000000pt" viewBox="0 0 906.000000 906.000000"
 preserveAspectRatio="xMidYMid meet">
<metadata>
Created by potrace 1.14, written by Peter Selinger 2001-2017
</metadata>
<g transform="translate(0.000000,906.000000) scale(0.100000,-0.100000)"
fill="#000000" stroke="none">
<path d="M3450 8503 c-81 -3 -123 -14 -145 -39 -5 -7 -41 -14 -80 -17 -82 -6
-105 -14 -105 -33 0 -8 -7 -14 -15 -14 -41 0 -119 -25 -144 -46 -16 -13 -39
-24 -50 -24 -13 0 -25 -9 -29 -21 -5 -11 -12 -21 -17 -21 -29 -3 -78 -32 -82
-49 -4 -12 -17 -22 -34 -26 -16 -3 -29 -10 -29 -14 0 -13 -48 -30 -95 -34 -22
-2 -115 -5 -207 -5 -179 -2 -208 -5 -208 -25 0 -13 -51 -25 -112 -25 -54 0
-136 -20 -153 -36 -8 -8 -33 -17 -57 -20 -62 -8 -108 -24 -128 -44 -10 -10
-39 -22 -63 -25 -31 -5 -47 -13 -50 -25 -3 -12 -19 -19 -51 -24 -33 -5 -51
-14 -62 -32 -9 -13 -24 -24 -34 -24 -9 0 -22 -11 -28 -26 -7 -14 -26 -30 -42
-36 -17 -5 -30 -16 -30 -24 0 -8 -4 -14 -10 -14 -15 0 -50 -33 -50 -47 0 -6
-9 -15 -20 -18 -17 -5 -25 -22 -21 -47 0 -4 -9 -10 -20 -13 -22 -7 -49 -60
-49 -95 0 -11 -6 -20 -14 -20 -17 0 -22 -13 -31 -74 -6 -35 -12 -46 -25 -46
-27 0 -51 -11 -45 -20 9 -14 -13 -22 -80 -30 -36 -5 -71 -15 -80 -24 -9 -9
-13 -16 -8 -17 4 0 -22 -8 -59 -18 -40 -10 -75 -26 -86 -39 -11 -12 -29 -22
-42 -22 -13 0 -24 -8 -27 -20 -4 -13 -22 -24 -59 -35 -34 -10 -54 -21 -54 -31
0 -8 -10 -18 -23 -23 -13 -5 -31 -20 -40 -34 -9 -14 -26 -28 -37 -32 -11 -3
-20 -13 -20 -21 0 -8 -11 -19 -25 -24 -14 -5 -30 -21 -35 -34 -5 -13 -18 -27
-29 -31 -12 -3 -21 -17 -23 -33 -2 -18 -10 -28 -24 -30 -17 -2 -23 -14 -33
-60 -6 -31 -12 -62 -13 -69 -1 -7 -4 -10 -8 -8 -11 7 -29 -40 -34 -92 -3 -26
-8 -133 -11 -238 -3 -104 -10 -191 -16 -193 -5 -2 -9 -8 -9 -13 0 -6 6 -7 13
-4 6 4 5 1 -3 -7 -15 -13 -19 -52 -6 -65 3 -3 1 -12 -5 -20 -7 -8 -8 -13 -1
-13 19 0 21 -41 3 -59 -10 -10 -22 -40 -25 -66 -5 -33 -13 -49 -25 -52 -13 -3
-21 -22 -29 -67 -7 -35 -12 -73 -12 -85 0 -12 -6 -21 -15 -21 -8 0 -15 -3 -16
-7 0 -5 -3 -28 -7 -53 -9 -57 -9 -1388 0 -1493 3 -47 12 -85 21 -95 10 -12 17
-52 21 -132 14 -267 19 -321 31 -328 17 -10 25 -52 31 -167 7 -149 13 -185 30
-185 8 0 14 -1 14 -2 1 -2 5 -61 10 -133 8 -121 27 -204 43 -188 4 3 8 -11 8
-33 3 -113 17 -175 44 -200 15 -13 25 -34 25 -49 0 -17 6 -29 18 -31 9 -3 25
-25 35 -49 11 -25 26 -45 38 -48 11 -3 23 -15 26 -27 3 -12 17 -26 30 -31 14
-5 27 -17 30 -27 2 -10 24 -27 48 -37 25 -10 47 -26 50 -36 3 -10 18 -19 33
-21 16 -2 31 -12 36 -24 7 -16 24 -24 69 -32 32 -6 64 -18 71 -25 6 -8 28 -20
49 -27 30 -9 37 -16 38 -38 1 -46 7 -66 24 -78 13 -10 18 -41 25 -138 10 -134
13 -146 36 -146 8 0 14 -10 15 -22 1 -34 25 -93 37 -91 5 1 17 -15 26 -37 9
-22 21 -40 28 -40 6 0 8 -3 5 -7 -4 -3 2 -12 13 -20 11 -8 20 -25 20 -37 0
-18 7 -25 30 -30 21 -4 30 -11 30 -26 0 -12 9 -22 24 -26 13 -3 28 -16 34 -29
11 -23 25 -29 77 -37 11 -2 24 -13 29 -24 7 -15 26 -26 63 -34 40 -10 53 -18
53 -31 0 -15 12 -19 60 -25 44 -5 61 -11 65 -24 6 -18 44 -30 96 -30 46 0 119
-23 119 -37 0 -8 15 -13 43 -14 23 0 51 -3 62 -5 11 -3 129 -5 263 -5 l243 0
11 -30 c5 -16 16 -29 24 -29 8 0 14 -8 14 -19 0 -10 7 -24 15 -31 8 -7 15 -20
15 -29 0 -9 10 -21 23 -26 12 -6 23 -20 25 -32 2 -13 14 -25 33 -32 16 -5 29
-17 29 -26 0 -9 13 -21 30 -26 18 -7 30 -18 30 -29 0 -13 11 -19 45 -25 30 -4
50 -13 58 -26 13 -22 67 -49 97 -49 10 0 20 -9 23 -20 4 -14 17 -21 57 -26 34
-4 54 -12 58 -23 9 -26 23 -31 87 -31 37 0 69 -6 81 -15 12 -8 24 -11 28 -8 3
3 6 -1 6 -9 0 -22 106 -31 380 -33 294 -2 505 13 471 34 -13 9 28 19 109 27
73 8 88 13 95 33 4 13 19 20 56 25 39 5 52 12 56 26 14 52 213 51 226 -1 4
-13 19 -20 56 -25 37 -5 52 -12 56 -25 7 -20 23 -25 95 -33 66 -6 110 -17 105
-26 -13 -21 105 -32 373 -34 305 -3 502 10 487 34 -6 10 27 20 85 26 92 9 108
14 113 34 4 14 14 20 35 20 43 0 82 17 82 35 0 8 8 15 19 15 30 0 85 27 98 49
8 13 28 22 58 26 34 6 45 12 45 25 0 11 12 22 30 29 17 5 30 17 30 26 0 9 13
21 29 26 19 7 31 19 33 32 2 12 13 26 26 32 12 5 22 17 22 26 0 9 7 22 15 29
8 7 15 21 15 31 0 11 6 19 14 19 8 0 19 14 25 30 l10 30 198 -2 c244 -2 413 9
413 27 0 15 31 24 124 34 53 6 74 14 87 30 9 11 26 21 37 21 44 0 85 14 89 30
3 11 23 22 57 30 36 8 55 19 62 34 5 11 18 22 29 24 52 8 66 14 77 37 6 13 21
26 33 29 12 3 25 15 28 26 3 11 17 24 31 30 15 5 26 17 26 28 0 10 14 31 30
47 17 16 30 35 30 42 0 8 12 26 26 40 14 14 31 47 37 74 7 29 18 50 28 52 18
5 29 64 29 156 0 66 12 115 34 137 9 9 16 32 16 54 0 35 3 39 34 50 19 6 36
16 38 22 4 12 5 12 91 30 44 9 57 15 57 29 0 13 12 22 40 29 22 6 40 17 40 24
0 7 20 21 45 32 29 12 45 24 45 36 0 11 10 20 26 24 14 4 30 17 35 31 5 14 18
27 29 30 11 3 27 24 37 49 10 24 26 47 35 50 10 3 18 18 20 37 2 19 11 36 23
42 24 12 24 13 37 135 6 52 14 97 18 100 21 15 31 63 39 182 6 86 13 134 20
136 21 7 30 48 32 151 2 113 15 188 35 209 8 7 14 25 14 40 0 34 11 217 15
257 1 17 3 58 4 93 1 46 5 62 15 62 10 0 17 20 23 68 10 87 11 1472 0 1535 -5
30 -13 47 -23 47 -8 0 -15 10 -15 25 -1 14 -2 28 -3 33 -1 4 -6 30 -10 59 -6
37 -13 52 -26 56 -13 3 -20 18 -26 52 -3 26 -14 55 -24 65 -16 16 -24 54 -9
45 11 -7 17 52 7 69 -6 10 -5 16 2 16 7 0 7 7 -2 23 -16 30 -16 28 -23 232 -7
237 -12 272 -40 320 -13 22 -26 61 -30 87 -6 38 -11 47 -29 50 -14 2 -22 11
-24 30 -2 16 -11 30 -23 33 -11 4 -24 18 -29 31 -5 13 -21 29 -35 34 -14 5
-25 16 -25 24 0 7 -13 19 -29 26 -16 6 -31 21 -34 32 -3 11 -15 22 -26 25 -11
3 -27 15 -35 28 -9 13 -33 27 -59 33 -31 8 -46 18 -50 32 -3 12 -13 20 -27 20
-11 0 -32 11 -46 25 -15 15 -46 29 -84 37 -34 7 -60 17 -60 24 0 19 -16 25
-88 34 -49 6 -71 14 -83 29 -10 12 -26 21 -37 21 -17 0 -22 9 -27 55 -6 41
-12 56 -26 60 -11 4 -19 15 -19 26 0 34 -27 87 -49 94 -11 3 -20 9 -20 13 4
25 -4 42 -21 47 -11 3 -20 12 -20 18 0 14 -35 47 -50 47 -6 0 -10 6 -10 14 0
8 -13 19 -30 24 -16 6 -35 22 -42 36 -6 15 -19 26 -28 26 -10 0 -25 11 -34 24
-11 18 -29 27 -62 32 -32 5 -48 12 -51 24 -3 12 -19 20 -50 25 -24 3 -52 14
-62 24 -23 23 -45 31 -115 41 -32 5 -65 15 -75 23 -22 20 -86 37 -141 37 -68
0 -120 11 -120 25 0 20 -33 24 -240 26 -190 2 -245 9 -265 34 -5 6 -22 15 -36
18 -15 4 -29 16 -32 27 -3 11 -22 26 -46 36 -23 9 -46 25 -52 35 -6 12 -21 19
-37 19 -17 0 -34 9 -45 24 -14 19 -35 27 -88 37 -41 7 -69 17 -69 25 0 17 -25
25 -105 31 -38 3 -75 10 -80 17 -39 42 0 41 -1160 41 -605 1 -1138 0 -1185 -2z"/>
</g>
</svg>
